<svg width="512" height="512" viewBox="0 0 512 512" fill="none" xmlns="http://www.w3.org/2000/svg">
<rect width="512" height="512" rx="76.8" fill="#0D47A1"/>
<g filter="url(#filter0_d_101_2)">
<path d="M256 128C186.63 128 130 184.63 130 254H145C145 192.92 194.92 143 256 143C317.08 143 367 192.92 367 254H382C382 184.63 325.37 128 256 128Z" fill="#BBDEFB"/>
<path d="M256 384C186.63 384 130 327.37 130 258H145C145 319.08 194.92 369 256 369C317.08 369 367 319.08 367 258H382C382 327.37 325.37 384 256 384Z" fill="#BBDEFB"/>
<path d="M207 206C207 178.386 229.386 156 257 156C284.614 156 307 178.386 307 206C307 233.614 284.614 256 257 256C229.386 256 207 233.614 207 206Z" stroke="#42A5F5" stroke-width="12"/>
<rect x="184" y="249" width="144" height="15" rx="7.5" fill="#42A5F5"/>
<path d="M299 299L326 326" stroke="#42A5F5" stroke-width="15" stroke-linecap="round"/>
</g>
<defs>
<filter id="filter0_d_101_2" x="120" y="120" width="272" height="279" filterUnits="userSpaceOnUse" color-interpolation-filters="sRGB">
<feFlood flood-opacity="0" result="BackgroundImageFix"/>
<feColorMatrix in="SourceAlpha" type="matrix" values="0 0 0 0 0 0 0 0 0 0 0 0 0 0 0 0 0 0 127 0" result="hardAlpha"/>
<feOffset dy="4"/>
<feGaussianBlur stdDeviation="5"/>
<feComposite in2="hardAlpha" operator="out"/>
<feColorMatrix type="matrix" values="0 0 0 0 0.0509804 0 0 0 0 0.278431 0 0 0 0 0.631373 0 0 0 0.2 0"/>
<feBlend mode="normal" in2="BackgroundImageFix" result="effect1_dropShadow_101_2"/>
<feBlend mode="normal" in="SourceGraphic" in2="effect1_dropShadow_101_2" result="shape"/>
</filter>
</defs>
</svg>
